<?xml version="1.0" standalone="no"?>
<!DOCTYPE svg PUBLIC "-//W3C//DTD SVG 20010904//EN"
 "http://www.w3.org/TR/2001/REC-SVG-20010904/DTD/svg10.dtd">
<svg version="1.0" xmlns="http://www.w3.org/2000/svg"
 width="3354.000000pt" height="3354.000000pt" viewBox="0 0 3354.000000 3354.000000"
 preserveAspectRatio="xMidYMid meet">
<metadata>
Created by potrace 1.14, written by Peter Selinger 2001-2017
</metadata>
<g transform="translate(0.000000,3354.000000) scale(0.100000,-0.100000)"
fill="#000000" stroke="none">
<path d="M14600 31365 l0 -245 185 0 185 0 0 -65 0 -65 65 0 65 0 0 -60 0 -60
60 0 60 0 0 -65 0 -65 65 0 65 0 0 -60 0 -60 60 0 60 0 0 -60 0 -60 60 0 60 0
0 -65 0 -65 65 0 65 0 0 -125 0 -125 60 0 60 0 0 -60 0 -60 65 0 65 0 0 -125
0 -125 185 0 185 0 0 -60 0 -60 -125 0 -125 0 0 -250 0 -250 125 0 125 0 0
-125 0 -125 60 0 60 0 0 -60 0 -60 65 0 65 0 0 -125 0 -125 60 0 60 0 0 -125
0 -125 -60 0 -60 0 0 60 0 60 -65 0 -65 0 0 65 0 65 -60 0 -60 0 0 60 0 60
-65 0 -65 0 0 65 0 65 -60 0 -60 0 0 60 0 60 -125 0 -125 0 0 65 0 65 -60 0
-60 0 0 60 0 60 -125 0 -125 0 0 60 0 60 -125 0 -125 0 0 65 0 65 -125 0 -125
0 0 60 0 60 -125 0 -125 0 0 65 0 65 -185 0 -185 0 0 60 0 60 -125 0 -125 0 0
60 0 60 -245 0 -245 0 0 65 0 65 -685 0 -685 0 0 -250 0 -250 60 0 60 0 0 -60
0 -60 125 0 125 0 0 -65 0 -65 65 0 65 0 0 -60 0 -60 125 0 125 0 0 -60 0 -60
60 0 60 0 0 -65 0 -65 60 0 60 0 0 -60 0 -60 125 0 125 0 0 -65 0 -65 65 0 65
0 0 -60 0 -60 60 0 60 0 0 -65 0 -65 60 0 60 0 0 -60 0 -60 65 0 65 0 0 -60 0
-60 60 0 60 0 0 -65 0 -65 65 0 65 0 0 -60 0 -60 60 0 60 0 0 -65 0 -65 65 0
65 0 0 -120 0 -120 60 0 60 0 0 -65 0 -65 60 0 60 0 0 -125 0 -125 65 0 65 0
0 -60 0 -60 60 0 60 0 0 -125 0 -125 -60 0 -60 0 0 60 0 60 -125 0 -125 0 0
65 0 65 -60 0 -60 0 0 60 0 60 -65 0 -65 0 0 65 0 65 -125 0 -125 0 0 60 0 60
-125 0 -125 0 0 65 0 65 -60 0 -60 0 0 60 0 60 -125 0 -125 0 0 60 0 60 -125
0 -125 0 0 65 0 65 -120 0 -120 0 0 60 0 60 -190 0 -190 0 0 65 0 65 -125 0
-125 0 0 60 0 60 -185 0 -185 0 0 60 0 60 -370 0 -370 0 0 65 0 65 -1180 0
-1180 0 0 -65 0 -65 -375 0 -375 0 0 -60 0 -60 -185 0 -185 0 0 -60 0 -60
-250 0 -250 0 0 -65 0 -65 -185 0 -185 0 0 -60 0 -60 -185 0 -185 0 0 -65 0
-65 -125 0 -125 0 0 -60 0 -60 -125 0 -125 0 0 -60 0 -60 -125 0 -125 0 0 -65
0 -65 -125 0 -125 0 0 -60 0 -60 -185 0 -185 0 0 -65 0 -65 -60 0 -60 0 0 -60
0 -60 -125 0 -125 0 0 -65 0 -65 -125 0 -125 0 0 -60 0 -60 -125 0 -125 0 0
-60 0 -60 -125 0 -125 0 0 -65 0 -65 -60 0 -60 0 0 -60 0 -60 -125 0 -125 0 0
-65 0 -65 -60 0 -60 0 0 -60 0 -60 -125 0 -125 0 0 -65 0 -65 -65 0 -65 0 0
-60 0 -60 -120 0 -120 0 0 -60 0 -60 -125 0 -125 0 0 -310 0 -310 185 0 185 0
0 60 0 60 310 0 310 0 0 60 0 60 375 0 375 0 0 65 0 65 370 0 370 0 0 60 0 60
435 0 435 0 0 65 0 65 620 0 620 0 0 60 0 60 65 0 65 0 0 -60 0 -60 805 0 805
0 0 -65 0 -65 185 0 185 0 0 65 0 65 125 0 125 0 0 -65 0 -65 375 0 375 0 0
-60 0 -60 185 0 185 0 0 -65 0 -65 185 0 185 0 0 -60 0 -60 250 0 250 0 0 60
0 60 60 0 60 0 0 -120 0 -120 190 0 190 0 0 -65 0 -65 185 0 185 0 0 -60 0
-60 125 0 125 0 0 -65 0 -65 125 0 125 0 0 -60 0 -60 120 0 120 0 0 -65 0 -65
65 0 65 0 0 -60 0 -60 125 0 125 0 0 -60 0 -60 60 0 60 0 0 -65 0 -65 -1240 0
-1240 0 0 -60 0 -60 -310 0 -310 0 0 -65 0 -65 -190 0 -190 0 0 -60 0 -60
-185 0 -185 0 0 -65 0 -65 -185 0 -185 0 0 -60 0 -60 -185 0 -185 0 0 -60 0
-60 -125 0 -125 0 0 -65 0 -65 -65 0 -65 0 0 -60 0 -60 -125 0 -125 0 0 -65 0
-65 -120 0 -120 0 0 -60 0 -60 -65 0 -65 0 0 -60 0 -60 -60 0 -60 0 0 -65 0
-65 -65 0 -65 0 0 -60 0 -60 -60 0 -60 0 0 -65 0 -65 -65 0 -65 0 0 -60 0 -60
-60 0 -60 0 0 -65 0 -65 -60 0 -60 0 0 -60 0 -60 -65 0 -65 0 0 -60 0 -60 -60
0 -60 0 0 -125 0 -125 -65 0 -65 0 0 -65 0 -65 -60 0 -60 0 0 -60 0 -60 -60 0
-60 0 0 -60 0 -60 -65 0 -65 0 0 -125 0 -125 -60 0 -60 0 0 -65 0 -65 -65 0
-65 0 0 -125 0 -125 -60 0 -60 0 0 -185 0 -185 -65 0 -65 0 0 -60 0 -60 -60 0
-60 0 0 -190 0 -190 -60 0 -60 0 0 -60 0 -60 -65 0 -65 0 0 -250 0 -250 250 0
250 0 0 65 0 65 60 0 60 0 0 60 0 60 65 0 65 0 0 65 0 65 60 0 60 0 0 60 0 60
65 0 65 0 0 60 0 60 120 0 120 0 0 65 0 65 125 0 125 0 0 60 0 60 65 0 65 0 0
65 0 65 120 0 120 0 0 60 0 60 125 0 125 0 0 65 0 65 125 0 125 0 0 60 0 60
185 0 185 0 0 60 0 60 125 0 125 0 0 65 0 65 125 0 125 0 0 60 0 60 185 0 185
0 0 65 0 65 310 0 310 0 0 60 0 60 125 0 125 0 0 65 0 65 375 0 375 0 0 60 0
60 370 0 370 0 0 125 0 125 435 0 435 0 0 60 0 60 870 0 870 0 0 -60 0 -60
-125 0 -125 0 0 -65 0 -65 -60 0 -60 0 0 -60 0 -60 -125 0 -125 0 0 -60 0 -60
-60 0 -60 0 0 -65 0 -65 -125 0 -125 0 0 -60 0 -60 -65 0 -65 0 0 -65 0 -65
-60 0 -60 0 0 -60 0 -60 -60 0 -60 0 0 -65 0 -65 -65 0 -65 0 0 -60 0 -60 -60
0 -60 0 0 -60 0 -60 -65 0 -65 0 0 -65 0 -65 -60 0 -60 0 0 -60 0 -60 -65 0
-65 0 0 -125 0 -125 -60 0 -60 0 0 -65 0 -65 -60 0 -60 0 0 -120 0 -120 -65 0
-65 0 0 -125 0 -125 -60 0 -60 0 0 -125 0 -125 -65 0 -65 0 0 -185 0 -185 -60
0 -60 0 0 -250 0 -250 -60 0 -60 0 0 -375 0 -375 -65 0 -65 0 0 -430 0 -430
-60 0 -60 0 0 -250 0 -250 245 0 245 0 0 60 0 60 65 0 65 0 0 125 0 125 60 0
60 0 0 125 0 125 65 0 65 0 0 60 0 60 60 0 60 0 0 125 0 125 60 0 60 0 0 65 0
65 65 0 65 0 0 60 0 60 60 0 60 0 0 60 0 60 65 0 65 0 0 65 0 65 60 0 60 0 0
60 0 60 65 0 65 0 0 65 0 65 60 0 60 0 0 60 0 60 125 0 125 0 0 185 0 185 125
0 125 0 0 65 0 65 60 0 60 0 0 60 0 60 60 0 60 0 0 65 0 65 65 0 65 0 0 60 0
60 60 0 60 0 0 65 0 65 65 0 65 0 0 60 0 60 185 0 185 0 0 60 0 60 60 0 60 0
0 65 0 65 65 0 65 0 0 60 0 60 60 0 60 0 0 65 0 65 65 0 65 0 0 60 0 60 60 0
60 0 0 60 0 60 65 0 65 0 0 65 0 65 60 0 60 0 0 60 0 60 125 0 125 0 0 65 0
65 60 0 60 0 0 60 0 60 65 0 65 0 0 65 0 65 60 0 60 0 0 -190 0 -190 -60 0
-60 0 0 -60 0 -60 -65 0 -65 0 0 -310 0 -310 -60 0 -60 0 0 -310 0 -310 -65 0
-65 0 0 -65 0 -65 -60 0 -60 0 0 -310 0 -310 -60 0 -60 0 0 -125 0 -125 -65 0
-65 0 0 -60 0 -60 -60 0 -60 0 0 -250 0 -250 60 0 60 0 0 -125 0 -125 -60 0
-60 0 0 -370 0 -370 -65 0 -65 0 0 -185 0 -185 -60 0 -60 0 0 -65 0 -65 -65 0
-65 0 0 -250 0 -250 125 0 125 0 0 -60 0 -60 -60 0 -60 0 0 -125 0 -125 -65 0
-65 0 0 -245 0 -245 125 0 125 0 0 -65 0 -65 -60 0 -60 0 0 -250 0 -250 -65 0
-65 0 0 -245 0 -245 65 0 65 0 0 -250 0 -250 -65 0 -65 0 0 -250 0 -250 125 0
125 0 0 -620 0 -620 125 0 125 0 0 -620 0 -620 65 0 65 0 0 -495 0 -495 120 0
120 0 0 -435 0 -435 190 0 190 0 0 -250 0 -250 -65 0 -65 0 0 -185 0 -185 185
0 185 0 0 -125 0 -125 65 0 65 0 0 -125 0 -125 60 0 60 0 0 -185 0 -185 65 0
65 0 0 -250 0 -250 60 0 60 0 0 -185 0 -185 125 0 125 0 0 -125 0 -125 60 0
60 0 0 -495 0 -495 65 0 65 0 0 -65 0 -65 60 0 60 0 0 -60 0 -60 125 0 125 0
0 -65 0 -65 65 0 65 0 0 -60 0 -60 60 0 60 0 0 -60 0 -60 60 0 60 0 0 -65 0
-65 65 0 65 0 0 -60 0 -60 60 0 60 0 0 -65 0 -65 65 0 65 0 0 -60 0 -60 5650
0 5650 0 0 1305 0 1305 -3975 0 -3975 0 0 1490 0 1490 3725 0 3725 0 0 1365 0
1365 -3725 0 -3725 0 0 1430 0 1430 3910 0 3910 0 0 1240 0 1240 -2915 0
-2915 0 0 125 0 125 60 0 60 0 0 310 0 310 65 0 65 0 0 375 0 375 60 0 60 0 0
805 0 805 -60 0 -60 0 0 435 0 435 -65 0 -65 0 0 310 0 310 -60 0 -60 0 0 125
0 125 -65 0 -65 0 0 125 0 125 -60 0 -60 0 0 60 0 60 -65 0 -65 0 0 65 0 65
-60 0 -60 0 0 60 0 60 -125 0 -125 0 0 60 0 60 -60 0 -60 0 0 65 0 65 -125 0
-125 0 0 60 0 60 -65 0 -65 0 0 65 0 65 -120 0 -120 0 0 60 0 60 -125 0 -125
0 0 65 0 65 -125 0 -125 0 0 60 0 60 -125 0 -125 0 0 60 0 60 -125 0 -125 0 0
65 0 65 435 0 435 0 0 60 0 60 620 0 620 0 0 -60 0 -60 250 0 250 0 0 245 0
245 65 0 65 0 0 -185 0 -185 745 0 745 0 0 -60 0 -60 620 0 620 0 0 -65 0 -65
245 0 245 0 0 -60 0 -60 250 0 250 0 0 -60 0 -60 185 0 185 0 0 -65 0 -65 190
0 190 0 0 -60 0 -60 185 0 185 0 0 -65 0 -65 185 0 185 0 0 -60 0 -60 125 0
125 0 0 -65 0 -65 125 0 125 0 0 -60 0 -60 185 0 185 0 0 -60 0 -60 125 0 125
0 0 -65 0 -65 250 0 250 0 0 250 0 250 -65 0 -65 0 0 60 0 60 -60 0 -60 0 0
125 0 125 -65 0 -65 0 0 65 0 65 -60 0 -60 0 0 120 0 120 -125 0 -125 0 0 125
0 125 -60 0 -60 0 0 65 0 65 -65 0 -65 0 0 60 0 60 -60 0 -60 0 0 60 0 60 -65
0 -65 0 0 65 0 65 -120 0 -120 0 0 60 0 60 -65 0 -65 0 0 65 0 65 -60 0 -60 0
0 60 0 60 -65 0 -65 0 0 65 0 65 -60 0 -60 0 0 60 0 60 -60 0 -60 0 0 60 0 60
-125 0 -125 0 0 65 0 65 -65 0 -65 0 0 60 0 60 -125 0 -125 0 0 65 0 65 -60 0
-60 0 0 60 0 60 -60 0 -60 0 0 65 0 65 -125 0 -125 0 0 60 0 60 -65 0 -65 0 0
60 0 60 -125 0 -125 0 0 65 0 65 -60 0 -60 0 0 60 0 60 -125 0 -125 0 0 65 0
65 -125 0 -125 0 0 60 0 60 -60 0 -60 0 0 60 0 60 -125 0 -125 0 0 65 0 65
-125 0 -125 0 0 60 0 60 -1365 0 -1365 0 0 -60 0 -60 -375 0 -375 0 0 60 0 60
65 0 65 0 0 65 0 65 125 0 125 0 0 60 0 60 125 0 125 0 0 65 0 65 120 0 120 0
0 60 0 60 125 0 125 0 0 60 0 60 190 0 190 0 0 65 0 65 120 0 120 0 0 60 0 60
125 0 125 0 0 190 0 190 65 0 65 0 0 -65 0 -65 495 0 495 0 0 65 0 65 125 0
125 0 0 -65 0 -65 310 0 310 0 0 65 0 65 125 0 125 0 0 60 0 60 125 0 125 0 0
60 0 60 185 0 185 0 0 65 0 65 185 0 185 0 0 60 0 60 375 0 375 0 0 65 0 65
620 0 620 0 0 245 0 245 -125 0 -125 0 0 65 0 65 -250 0 -250 0 0 60 0 60
-245 0 -245 0 0 65 0 65 -310 0 -310 0 0 60 0 60 -250 0 -250 0 0 60 0 60
-375 0 -375 0 0 65 0 65 -435 0 -435 0 0 60 0 60 -1550 0 -1550 0 0 -60 0 -60
-250 0 -250 0 0 -65 0 -65 -125 0 -125 0 0 -60 0 -60 -60 0 -60 0 0 -60 0 -60
-125 0 -125 0 0 -125 0 -125 -60 0 -60 0 0 -65 0 -65 -65 0 -65 0 0 -60 0 -60
-60 0 -60 0 0 -65 0 -65 -65 0 -65 0 0 -60 0 -60 -60 0 -60 0 0 -60 0 -60 -60
0 -60 0 0 -65 0 -65 -65 0 -65 0 0 -60 0 -60 -60 0 -60 0 0 -65 0 -65 -65 0
-65 0 0 -120 0 -120 -60 0 -60 0 0 -65 0 -65 -60 0 -60 0 0 -60 0 -60 -65 0
-65 0 0 -65 0 -65 -60 0 -60 0 0 -60 0 -60 -65 0 -65 0 0 -65 0 -65 -60 0 -60
0 0 -60 0 -60 -65 0 -65 0 0 -60 0 -60 -60 0 -60 0 0 245 0 245 -60 0 -60 0 0
435 0 435 -65 0 -65 0 0 310 0 310 -60 0 -60 0 0 190 0 190 -65 0 -65 0 0 120
0 120 -60 0 -60 0 0 125 0 125 -65 0 -65 0 0 185 0 185 -60 0 -60 0 0 65 0 65
-60 0 -60 0 0 125 0 125 -65 0 -65 0 0 60 0 60 -60 0 -60 0 0 65 0 65 -65 0
-65 0 0 60 0 60 -60 0 -60 0 0 60 0 60 -60 0 -60 0 0 65 0 65 -65 0 -65 0 0
60 0 60 -60 0 -60 0 0 65 0 65 -65 0 -65 0 0 60 0 60 -125 0 -125 0 0 65 0 65
-185 0 -185 0 0 60 0 60 -125 0 -125 0 0 60 0 60 -930 0 -930 0 0 -245z m7700
-5280 l0 -65 -60 0 -60 0 0 65 0 65 60 0 60 0 0 -65z m-8320 -1985 l0 -60 -65
0 -65 0 0 60 0 60 65 0 65 0 0 -60z m4970 -2610 l0 -60 185 0 185 0 0 -60 0
-60 125 0 125 0 0 -65 0 -65 125 0 125 0 0 -60 0 -60 125 0 125 0 0 -65 0 -65
120 0 120 0 0 -60 0 -60 125 0 125 0 0 -65 0 -65 125 0 125 0 0 -60 0 -60 60
0 60 0 0 -60 0 -60 125 0 125 0 0 -65 0 -65 125 0 125 0 0 -60 0 -60 125 0
125 0 0 -310 0 -310 60 0 60 0 0 -65 0 -65 65 0 65 0 0 -125 0 -125 60 0 60 0
0 -120 0 -120 65 0 65 0 0 -190 0 -190 60 0 60 0 0 -185 0 -185 60 0 60 0 0
-185 0 -185 65 0 65 0 0 -375 0 -375 60 0 60 0 0 -310 0 -310 -2170 0 -2170 0
0 -3355 0 -3355 -65 0 -65 0 0 65 0 65 -60 0 -60 0 0 60 0 60 -65 0 -65 0 0
250 0 250 -60 0 -60 0 0 125 0 125 -60 0 -60 0 0 125 0 125 -65 0 -65 0 0 60
0 60 65 0 65 0 0 250 0 250 -65 0 -65 0 0 125 0 125 -60 0 -60 0 0 120 0 120
-65 0 -65 0 0 500 0 500 -60 0 -60 0 0 185 0 185 -65 0 -65 0 0 125 0 125 65
0 65 0 0 310 0 310 -65 0 -65 0 0 250 0 250 125 0 125 0 0 245 0 245 -60 0
-60 0 0 310 0 310 185 0 185 0 0 315 0 315 -60 0 -60 0 0 430 0 430 -65 0 -65
0 0 65 0 65 125 0 125 0 0 560 0 560 125 0 125 0 0 435 0 435 185 0 185 0 0
435 0 435 125 0 125 0 0 120 0 120 60 0 60 0 0 190 0 190 65 0 65 0 0 125 0
125 60 0 60 0 0 120 0 120 65 0 65 0 0 -60z"/>
</g>
</svg>
